<svg width="1600" height="1000" viewBox="0 0 1600 1000" fill="none" xmlns="http://www.w3.org/2000/svg">
  <rect width="1600" height="1000" fill="#08110F"/>
  <rect x="72" y="72" width="1456" height="856" rx="36" fill="#0B1714" stroke="#17352D" stroke-width="2"/>
  <path d="M72 242H1528" stroke="#123028" stroke-width="2" stroke-dasharray="10 14"/>
  <path d="M72 500H1528" stroke="#123028" stroke-width="2" stroke-dasharray="10 14"/>
  <path d="M72 758H1528" stroke="#123028" stroke-width="2" stroke-dasharray="10 14"/>
  <path d="M430 72V928" stroke="#123028" stroke-width="2" stroke-dasharray="10 14"/>
  <path d="M800 72V928" stroke="#123028" stroke-width="2" stroke-dasharray="10 14"/>
  <path d="M1170 72V928" stroke="#123028" stroke-width="2" stroke-dasharray="10 14"/>
  <circle cx="1210" cy="232" r="170" fill="#10B981" fill-opacity="0.08"/>
  <circle cx="420" cy="760" r="210" fill="#10B981" fill-opacity="0.06"/>
  <rect x="474" y="194" width="652" height="612" rx="40" fill="#0A1412" stroke="#24473D" stroke-width="3"/>
  <g transform="translate(515 184) scale(20)">
    <path d="M-1 28 L11 4 H17 L5 28 H-1 Z" fill="#10B981"/>
    <path d="M7 28 L19 4 H25 L13 28 H7 Z" fill="#09090B"/>
    <path d="M15 28 L23.5 11 H29.5 L21 28 Z" fill="#10B981"/>
    <circle cx="28" cy="7" r="3" fill="#10B981"/>
  </g>
</svg>
