<svg width="1600" height="900" viewBox="0 0 1600 900" fill="none" xmlns="http://www.w3.org/2000/svg">
  <rect width="1600" height="900" fill="#0B1220"/>
  <rect x="80" y="80" width="1440" height="740" rx="40" fill="url(#panel)"/>
  <path d="M310 220L510 220C620.457 220 710 309.543 710 420V430C710 540.457 620.457 630 510 630H310V220Z" fill="url(#accent)"/>
  <path d="M450 220H710V350H580V630H450V220Z" fill="#F8FAFC"/>
  <path d="M812 298H1250" stroke="#334155" stroke-width="18" stroke-linecap="round"/>
  <path d="M812 402H1390" stroke="#334155" stroke-width="18" stroke-linecap="round"/>
  <path d="M812 506H1320" stroke="#334155" stroke-width="18" stroke-linecap="round"/>
  <path d="M812 610H1180" stroke="#334155" stroke-width="18" stroke-linecap="round"/>
  <circle cx="760" cy="298" r="18" fill="#F97316"/>
  <circle cx="760" cy="402" r="18" fill="#22C55E"/>
  <circle cx="760" cy="506" r="18" fill="#38BDF8"/>
  <circle cx="760" cy="610" r="18" fill="#FACC15"/>
  <text x="800" y="256" fill="#E2E8F0" font-family="'Arial', sans-serif" font-size="148" font-weight="700" letter-spacing="10">4EVER</text>
  <text x="810" y="706" fill="#94A3B8" font-family="'Arial', sans-serif" font-size="54" font-weight="600" letter-spacing="18">ENTERPRISE RESOURCE PLATFORM</text>
  <defs>
    <linearGradient id="panel" x1="160" y1="120" x2="1460" y2="780" gradientUnits="userSpaceOnUse">
      <stop stop-color="#111827"/>
      <stop offset="1" stop-color="#1E293B"/>
    </linearGradient>
    <linearGradient id="accent" x1="310" y1="220" x2="710" y2="630" gradientUnits="userSpaceOnUse">
      <stop stop-color="#F97316"/>
      <stop offset="1" stop-color="#FACC15"/>
    </linearGradient>
  </defs>
</svg>
